<svg width="33" height="32" viewBox="0 0 33 32" fill="none" xmlns="http://www.w3.org/2000/svg">
<g filter="url(#filter0_i_1560_3590)">
<rect x="0.679321" width="31.8113" height="31.8113" rx="15.9057" fill="#111111"/>
<path d="M12.8493 6.76C14.0644 6.25995 15.3654 6.00179 16.6793 6C17.9893 6 19.2893 6.26 20.5093 6.76C21.7193 7.26 22.8193 8 23.7493 8.93C24.6793 9.86 25.4193 10.96 25.9193 12.17C26.4193 13.39 26.6793 14.69 26.6793 16C26.6793 18.65 25.6293 21.2 23.7493 23.07C22.8219 24 21.72 24.7376 20.5067 25.2404C19.2934 25.7432 17.9927 26.0014 16.6793 26C15.3654 25.9982 14.0644 25.7401 12.8493 25.24C11.6374 24.7363 10.5365 23.9989 9.60933 23.07C8.67935 22.1426 7.94176 21.0406 7.43894 19.8273C6.93612 18.614 6.67797 17.3134 6.67933 16C6.67933 13.35 7.72933 10.8 9.60933 8.93C10.5393 8 11.6393 7.26 12.8493 6.76ZM16.6793 21L18.2393 17.58L21.6793 16L18.2393 14.44L16.6793 11L15.1093 14.44L11.6793 16L15.1093 17.58L16.6793 21Z" fill="white"/>
</g>
<defs>
<filter id="filter0_i_1560_3590" x="0.679321" y="0" width="31.8114" height="32.3459" filterUnits="userSpaceOnUse" color-interpolation-filters="sRGB">
<feFlood flood-opacity="0" result="BackgroundImageFix"/>
<feBlend mode="normal" in="SourceGraphic" in2="BackgroundImageFix" result="shape"/>
<feColorMatrix in="SourceAlpha" type="matrix" values="0 0 0 0 0 0 0 0 0 0 0 0 0 0 0 0 0 0 127 0" result="hardAlpha"/>
<feMorphology radius="0.534644" operator="erode" in="SourceAlpha" result="effect1_innerShadow_1560_3590"/>
<feOffset dy="0.534644"/>
<feGaussianBlur stdDeviation="0.728453"/>
<feComposite in2="hardAlpha" operator="arithmetic" k2="-1" k3="1"/>
<feColorMatrix type="matrix" values="0 0 0 0 1 0 0 0 0 1 0 0 0 0 1 0 0 0 1 0"/>
<feBlend mode="normal" in2="shape" result="effect1_innerShadow_1560_3590"/>
</filter>
</defs>
</svg>
