<svg width="32" height="32" viewBox="0 0 32 32" fill="none" xmlns="http://www.w3.org/2000/svg">
<path d="M17.2726 1.05996C17.0026 1.29996 14.9026 5.46746 14.9026 5.46746L13.3401 11.77L19.4201 11.2125C19.4201 11.2125 24.4776 1.80746 24.5801 1.58996C24.7626 1.19496 24.8601 1.03246 24.1626 1.03246C23.4651 1.02996 17.5251 0.834956 17.2726 1.05996Z" fill="#111111"/>
<path d="M20.42 10.8225C20.1175 10.66 11.2075 10.52 10.9975 10.8225C10.8075 11.0975 10.915 12.54 10.9875 12.7125C11.1175 13.0124 13.995 14.32 13.995 14.32L13.94 14.915C13.94 14.915 14.175 14.975 15.8475 14.975C17.52 14.975 17.85 14.89 17.85 14.89L17.855 14.3525C17.855 14.3525 20.445 13.0924 20.575 12.9174C20.685 12.7724 20.7225 10.985 20.42 10.8225ZM17.7675 13.1025C17.7675 13.1025 17.85 12.735 17.6775 12.65C17.505 12.5625 14.545 12.6025 14.31 12.615C14.075 12.6275 14.075 13.0475 14.075 13.0475L12.175 11.915V11.73L19.25 11.78L19.2625 11.99L17.7675 13.1025Z" fill="#CECDD2"/>
<path d="M14.8151 12.7925C14.5801 12.7925 14.4451 13.0375 14.4451 13.46C14.4451 13.855 14.5801 14.1875 14.8776 14.1625C15.1226 14.1425 15.2076 13.7675 15.1851 13.435C15.1626 13.04 15.1126 12.7925 14.8151 12.7925Z" fill="#FDFFFF"/>
<path d="M7.24243 22.9724C7.24243 28.9624 12.7549 31.5049 16.3574 31.3974C20.5549 31.2724 24.9849 28.0874 24.6974 22.3724C24.4249 16.9574 19.8324 14.5499 15.8874 14.5774C11.3024 14.6124 7.24243 17.7399 7.24243 22.9724Z" fill="#CECDD2"/>
<path d="M16.1326 30.2825C16.0701 30.2825 16.0051 30.2825 15.9426 30.28C14.0676 30.2175 12.2151 29.4275 10.8601 28.115C9.41009 26.71 8.61509 24.81 8.62509 22.7675C8.64759 17.78 13.0076 15.4675 15.9651 15.4675H15.9901C19.9976 15.485 23.2876 18.6 23.3801 22.8225C23.4201 24.7025 22.6501 26.675 21.1401 28.16C19.7301 29.5425 17.8601 30.2825 16.1326 30.2825ZM15.9601 16.2975C13.3076 16.2975 9.38509 18.4675 9.37509 22.7675C9.36759 25.9825 11.8576 29.2875 16.0051 29.4275C17.5851 29.4775 19.2126 28.8725 20.5276 27.58C21.8926 26.2375 22.6601 24.5075 22.6326 22.8325C22.5676 19.2 19.5976 16.31 15.9926 16.2925C15.9876 16.2925 15.9676 16.2975 15.9601 16.2975Z" fill="#9B9B9D"/>
<path d="M14.5225 15.3676C14.35 15.1301 12.5825 15.1976 10.68 16.8351C8.78996 18.4626 8.50746 20.2626 8.84746 20.3576C9.23496 20.4651 9.70746 18.7251 11.34 17.2626C12.84 15.9251 14.865 15.8401 14.5225 15.3676ZM21.97 21.9301C21.3675 22.0151 21.9925 23.8201 20.595 25.8401C19.3825 27.5926 18.0075 28.2276 18.1675 28.6126C18.3825 29.1276 20.585 27.8451 21.605 25.7551C22.5275 23.8651 22.4175 21.8676 21.97 21.9301Z" fill="#FEFFFA"/>
<path d="M6.37755 0.930104C6.22005 1.0751 12.2425 11.8001 12.2425 11.8001C12.2425 11.8001 13.2525 11.9301 15.5075 11.9501C17.7625 11.9701 18.88 11.8201 18.88 11.8201C18.88 11.8201 14.1975 1.0376 13.9175 0.930104C13.78 0.875104 11.925 0.855104 10.1125 0.835104C8.29755 0.812604 6.52755 0.790104 6.37755 0.930104Z" fill="#2E9DF4"/>
<path d="M14.2125 21.5875C14.4725 21.59 14.705 21.2375 14.92 21.0225C15.3775 20.5625 15.8575 20.1975 16.405 20.6925C17.75 21.915 15.05 23.155 14.025 24.85C13.26 26.115 13.105 27.0875 13.3175 27.3475C13.53 27.6075 18.7025 27.595 18.7725 27.465C18.8425 27.335 18.915 25.6025 18.795 25.52C18.675 25.4375 16.1325 25.485 16.1325 25.485C16.1325 25.485 16.345 24.99 17.2175 24.235C18.175 23.4075 18.9425 22.27 18.7375 20.925C18.3125 18.145 15.5125 18.0425 14.3 19.01C13.1175 19.9525 13.3725 21.5775 14.2125 21.5875Z" fill="#9B9B9D"/>
</svg>
