<svg width="32" height="32" viewBox="0 0 32 32" fill="none" xmlns="http://www.w3.org/2000/svg">
<g filter="url(#filter0_i_1063_2449)">
<rect width="31.8113" height="31.8113" rx="15.9057" fill="#111111"/>
<path d="M10.7371 7.4475C10.5809 7.69877 11.1241 8.32355 11.7489 8.62236C11.9595 8.72423 12.5435 8.90759 13.0392 9.03662C14.119 9.30826 14.5537 9.512 14.9883 9.967C15.3414 10.3337 15.6606 10.8974 15.6606 11.1487C15.6606 11.2369 15.7149 11.3524 15.7761 11.4203C15.8847 11.529 15.8983 11.5086 16.0409 11.0468C16.2514 10.3473 16.7404 9.75648 17.3584 9.44409C17.5485 9.34901 18.0986 9.16565 18.5876 9.03662C19.0698 8.90759 19.6402 8.71744 19.8439 8.61557C20.2989 8.39146 20.8898 7.79384 20.8898 7.54936C20.8898 7.31167 20.754 7.32526 20.2514 7.60369C19.3346 8.11303 18.7438 8.16736 17.7319 7.81422C16.3601 7.34563 15.4026 7.34563 13.99 7.81422C12.9034 8.17415 12.2854 8.12661 11.3279 7.60369C10.8661 7.35242 10.805 7.33884 10.7371 7.4475Z" fill="white"/>
<path d="M19.7692 9.25406C19.6198 9.31518 19.484 9.3763 19.4704 9.38309C19.4568 9.39667 19.6198 9.55966 19.8235 9.74981C20.0544 9.96034 20.2785 10.2524 20.394 10.4833C20.5638 10.8228 20.5841 10.945 20.5841 11.5155C20.5841 12.086 20.5638 12.2082 20.394 12.5478C20.1563 13.0299 19.776 13.4238 19.3142 13.6683C18.995 13.8381 18.8796 13.8584 18.3091 13.8584C17.7319 13.8584 17.6232 13.8381 17.2769 13.6615C16.8762 13.4578 16.7879 13.4646 16.7268 13.6887C16.6996 13.7905 16.754 13.872 16.9102 13.9943C18.4314 15.1555 20.7471 14.1437 21.1682 12.1403C21.2701 11.6377 21.2089 10.9043 21.0256 10.4085C20.8626 9.97392 20.3057 9.18615 20.1427 9.15898C20.0884 9.15219 19.9186 9.19294 19.7692 9.25406Z" fill="white"/>
<path d="M11.1513 9.55965C10.6148 10.1776 10.3364 11.2099 10.4858 12.0859C10.7846 13.9128 12.754 15.0129 14.3431 14.2319C14.5672 14.1233 14.8049 13.9739 14.866 13.906C14.9679 13.7973 14.9679 13.7701 14.8796 13.6343L14.7778 13.4917L14.2888 13.6954C13.3448 14.1029 12.4144 13.9263 11.715 13.2201C11.192 12.6836 11.0223 12.2353 11.0562 11.4476C11.0834 10.7277 11.2532 10.3542 11.8032 9.79734L12.1903 9.40345L12.007 9.33554C11.5452 9.15897 11.4908 9.17255 11.1513 9.55965Z" fill="white"/>
<path d="M12.8151 9.82443C11.0834 10.327 11.2396 12.9551 13.0257 13.3626C13.7048 13.512 14.5537 13.091 14.6623 12.5545C14.6963 12.3575 14.7846 12.2081 14.934 12.0859C15.1309 11.9229 15.1513 11.8686 15.1445 11.5494C15.1173 10.4424 13.8746 9.52562 12.8151 9.82443ZM13.8746 10.8024C13.9628 10.8635 14.0987 11.0061 14.1666 11.1283C14.6488 11.9161 13.6165 12.8736 12.8355 12.3643C12.5843 12.2013 12.3805 11.7463 12.4213 11.4271C12.5095 10.7956 13.3245 10.4424 13.8746 10.8024Z" fill="white"/>
<path d="M13.0122 11.1758C12.9035 11.2845 12.8899 11.3456 12.9442 11.4475C13.0869 11.7123 13.4807 11.5358 13.3857 11.2505C13.3246 11.0536 13.1616 11.0264 13.0122 11.1758Z" fill="white"/>
<path d="M17.9016 9.811C17.1682 10.0351 16.591 10.7346 16.5027 11.4952C16.4619 11.8008 16.4755 11.8483 16.6996 12.1132C16.8354 12.2694 16.9577 12.4867 16.9848 12.5954C17.1207 13.2066 18.2955 13.5665 19.0222 13.2134C19.613 12.9281 20.0748 12.1947 20.0748 11.5495C20.0748 10.9112 19.5858 10.1302 19.0222 9.87891C18.7437 9.74988 18.2072 9.71592 17.9016 9.811ZM18.7166 10.721C19.1444 10.9383 19.3278 11.6378 19.0765 12.0657C18.8252 12.4935 18.1733 12.6361 17.7726 12.3577C17.596 12.2286 17.3651 11.7668 17.3583 11.5292C17.3516 10.9044 18.1461 10.4358 18.7166 10.721Z" fill="white"/>
<path d="M17.9357 11.1487C17.8067 11.2845 17.827 11.4407 17.99 11.5426C18.1258 11.6309 18.3296 11.529 18.3635 11.366C18.3839 11.2574 18.2073 11.0401 18.1055 11.0401C18.0715 11.0401 17.9968 11.0876 17.9357 11.1487Z" fill="white"/>
<path d="M15.423 12.4118C15.2668 12.5341 15.2464 12.5884 15.2736 12.8193C15.2939 12.9619 15.423 13.3286 15.5656 13.6275L15.8236 14.1843L16.0885 13.6139C16.4484 12.8329 16.4552 12.7378 16.2379 12.4798C16.0138 12.2149 15.7082 12.1877 15.423 12.4118Z" fill="white"/>
<path d="M10.1666 13.4713C9.94254 13.8924 9.7388 15.9433 9.90179 16.147C9.9697 16.2353 11.1989 16.7446 11.3483 16.7446C11.4094 16.7446 11.3823 15.5086 11.3076 15.0672C11.2668 14.8295 11.1649 14.5511 11.0834 14.4424C11.0087 14.3338 10.8322 14.1029 10.7031 13.9263C10.5741 13.743 10.4179 13.5392 10.3568 13.4645L10.2481 13.3219L10.1666 13.4713Z" fill="white"/>
<path d="M20.917 13.8787C20.6861 14.1639 20.462 14.4763 20.4144 14.5714C20.3601 14.6732 20.3126 15.1079 20.2922 15.7055C20.2515 16.8532 20.1903 16.7988 21.1615 16.4185L21.8066 16.1673L21.827 15.8277C21.8745 15.1486 21.5418 13.3422 21.3788 13.3557C21.3516 13.3557 21.1479 13.5934 20.917 13.8787Z" fill="white"/>
<path d="M14.8457 14.5784C14.1395 15.0402 13.3449 15.1964 12.5843 15.0198C12.3262 14.9587 12.0885 14.9112 12.0546 14.9112C12.0138 14.9112 12.0002 15.339 12.007 16.0113L12.0274 17.1115L12.8423 17.5461C14.153 18.2388 15.0291 18.8975 15.5724 19.5902L15.8236 19.9094L16.5096 19.2235C17.2158 18.5037 17.9968 17.9332 19.0426 17.3695L19.6335 17.0504L19.6538 15.9366L19.6742 14.8297L19.518 14.8704C19.4297 14.8976 19.1513 14.9655 18.8932 15.0266C18.2617 15.1692 17.7116 15.0809 16.9985 14.7074C16.6997 14.558 16.4416 14.4494 16.4145 14.4697C16.3805 14.4833 16.2447 14.6667 16.1021 14.8772C15.9595 15.0809 15.8169 15.2507 15.7829 15.2507C15.7489 15.2507 15.5995 15.0538 15.4501 14.8093C15.2939 14.5648 15.1649 14.3679 15.1581 14.3747C15.1581 14.3747 15.0155 14.4697 14.8457 14.5784Z" fill="white"/>
<path d="M22.0103 16.7447C21.3448 16.8942 19.0494 17.9604 18.2345 18.4969C17.5689 18.9315 16.4959 19.9026 16.1088 20.4187L15.81 20.8194L15.4705 20.3576C14.8661 19.5563 14.187 18.979 12.9781 18.2727C11.9051 17.6412 9.54183 16.6497 9.41959 16.7855C9.38564 16.8194 9.34489 16.9553 9.31772 17.0911L9.27698 17.3356L10.1055 17.6276C12.8084 18.5716 13.8746 19.1624 15.1173 20.3848L15.8304 21.0911L16.2718 20.6564C17.9357 19.0198 19.0969 18.3542 21.5689 17.6072L22.3499 17.3695L22.3431 17.0843C22.3363 16.7447 22.2752 16.6836 22.0103 16.7447Z" fill="white"/>
<path d="M8.74724 18.0418C8.76761 18.232 8.80157 18.2727 9.03926 18.3474C10.4382 18.7753 10.8321 18.9111 11.4773 19.1692C12.462 19.5631 13.4874 20.0792 13.99 20.4391C14.2209 20.6021 14.6351 20.9824 14.9204 21.288C15.4433 21.8449 15.6402 21.9739 15.5587 21.6819C15.4161 21.2133 14.3363 20.1878 13.3312 19.5834C12.5435 19.108 9.84061 18.0486 8.95097 17.8653C8.72686 17.8177 8.72686 17.8245 8.74724 18.0418Z" fill="white"/>
<path d="M22.5537 17.8789C22.0444 18.0079 20.5775 18.4901 20.0885 18.6938C18.771 19.2371 17.7184 19.8822 16.8695 20.6768C16.3806 21.1318 15.9867 21.709 16.0886 21.8109C16.1157 21.8381 16.4485 21.5596 16.8288 21.1861C18.1191 19.9434 19.389 19.2778 21.9289 18.5444C22.7778 18.2931 23.0562 18.1845 23.0291 18.1165C23.0087 18.069 22.9951 17.9807 22.9951 17.9264C22.9951 17.8313 22.8253 17.8109 22.5537 17.8789Z" fill="white"/>
<path d="M23.2328 18.7616C23.1581 18.7752 22.6488 18.911 22.0987 19.0604C20.3737 19.5222 18.7846 20.2149 17.8474 20.9008C17.3856 21.2403 16.8152 21.7633 16.8152 21.8448C16.8152 21.9738 17.0936 21.8991 17.3041 21.7089C18.1938 20.9347 20.3737 19.9364 22.1394 19.4882C22.3703 19.4339 22.7778 19.3252 23.0494 19.2438C23.5112 19.1079 23.5452 19.0876 23.5248 18.9314C23.5044 18.748 23.4501 18.714 23.2328 18.7616Z" fill="white"/>
<path d="M8.2583 18.945C8.2583 19.1351 8.24472 19.1283 9.77272 19.5901C11.9255 20.2421 13.1819 20.8397 14.3703 21.7633C14.5944 21.9398 14.8457 22.0077 14.8457 21.8991C14.8457 21.7633 14.1462 21.1181 13.6776 20.8193C12.754 20.2217 11.1309 19.529 9.42638 19.0129C8.48241 18.7276 8.2583 18.7141 8.2583 18.945Z" fill="white"/>
<path d="M7.68107 19.7124C7.40943 19.9773 7.63354 20.0995 9.22266 20.5817C11.3347 21.2133 11.844 21.4306 13.372 22.327C14.1123 22.7616 14.1938 22.8295 14.3296 23.1284C14.6691 23.8618 15.1513 24.2285 15.7829 24.2285C16.4212 24.2285 16.8355 23.9501 17.3313 23.1827C17.698 22.619 18.282 22.1844 19.4297 21.6275C20.3737 21.1725 21.467 20.799 22.8592 20.4391C23.9254 20.1742 24.1495 20.0724 24.1495 19.8686C24.1495 19.5766 23.9458 19.5834 22.6759 19.9297C19.2667 20.8737 17.7319 21.6615 16.8423 22.9314C16.4009 23.5562 16.1768 23.6988 15.7489 23.6513C15.3754 23.6105 15.0291 23.3457 14.7982 22.9246C14.5537 22.4832 14.4111 22.3542 13.6844 21.8652C12.6046 21.1453 11.3211 20.6021 9.23624 19.9773C8.09533 19.6377 7.80331 19.5902 7.68107 19.7124Z" fill="white"/>
<path d="M15.3142 22.524C15.2124 22.5851 15.3618 22.9043 15.5519 23.0265C15.7828 23.1827 16.0884 23.108 16.3058 22.8432C16.4008 22.7345 16.4755 22.6191 16.4755 22.5851C16.4755 22.5172 15.4093 22.4629 15.3142 22.524Z" fill="white"/>
</g>
<defs>
<filter id="filter0_i_1063_2449" x="0" y="0" width="31.8113" height="32.3459" filterUnits="userSpaceOnUse" color-interpolation-filters="sRGB">
<feFlood flood-opacity="0" result="BackgroundImageFix"/>
<feBlend mode="normal" in="SourceGraphic" in2="BackgroundImageFix" result="shape"/>
<feColorMatrix in="SourceAlpha" type="matrix" values="0 0 0 0 0 0 0 0 0 0 0 0 0 0 0 0 0 0 127 0" result="hardAlpha"/>
<feMorphology radius="0.534644" operator="erode" in="SourceAlpha" result="effect1_innerShadow_1063_2449"/>
<feOffset dy="0.534644"/>
<feGaussianBlur stdDeviation="0.728453"/>
<feComposite in2="hardAlpha" operator="arithmetic" k2="-1" k3="1"/>
<feColorMatrix type="matrix" values="0 0 0 0 1 0 0 0 0 1 0 0 0 0 1 0 0 0 1 0"/>
<feBlend mode="normal" in2="shape" result="effect1_innerShadow_1063_2449"/>
</filter>
</defs>
</svg>
